<?xml version="1.0" encoding="UTF-8" standalone="no"?>
<!-- Created with Inkscape (http://www.inkscape.org/) -->

<svg
   width="210mm"
   height="297mm"
   viewBox="0 0 210 297"
   version="1.1"
   id="svg1"
   inkscape:version="1.4 (86a8ad7, 2024-10-11)"
   sodipodi:docname="circles.svg"
   xmlns:inkscape="http://www.inkscape.org/namespaces/inkscape"
   xmlns:sodipodi="http://sodipodi.sourceforge.net/DTD/sodipodi-0.dtd"
   xmlns="http://www.w3.org/2000/svg"
   xmlns:svg="http://www.w3.org/2000/svg">
  <sodipodi:namedview
     id="namedview1"
     pagecolor="#505050"
     bordercolor="#ffffff"
     borderopacity="1"
     inkscape:showpageshadow="0"
     inkscape:pageopacity="0"
     inkscape:pagecheckerboard="1"
     inkscape:deskcolor="#505050"
     inkscape:document-units="mm"
     inkscape:zoom="0.71891835"
     inkscape:cx="397.12437"
     inkscape:cy="561.25984"
     inkscape:window-width="1920"
     inkscape:window-height="1009"
     inkscape:window-x="1912"
     inkscape:window-y="-8"
     inkscape:window-maximized="1"
     inkscape:current-layer="layer1" />
  <defs
     id="defs1" />
  <g
     inkscape:label="Layer 1"
     inkscape:groupmode="layer"
     id="layer1">
    <g
       id="g3106"
       transform="matrix(0,-0.26458333,0.26458333,0,-79.842972,256.98229)"
       style="fill:#c0c0c0;fill-opacity:1">
	<path
   style="fill:#c0c0c0;fill-opacity:1"
   d="m 766.858,562.42 c -27.616,-14.246 -61.553,-3.41 -75.804,24.211 -14.239,27.609 -3.408,61.547 24.208,75.795 27.617,14.248 61.555,3.406 75.8,-24.205 14.248,-27.616 3.412,-61.555 -24.204,-75.801 z m 9.201,68.06 c -9.968,19.332 -33.727,26.92 -53.059,16.941 -19.332,-9.969 -26.914,-33.728 -16.943,-53.053 9.973,-19.334 33.728,-26.92 53.059,-16.949 19.334,9.974 26.924,33.731 16.943,53.061 z"
   id="path3028" />

	<path
   style="fill:#c0c0c0;fill-opacity:1"
   d="m 755.504,584.422 c -15.458,-7.977 -34.466,-1.906 -42.445,13.555 -7.979,15.463 -1.907,34.473 13.556,42.449 15.466,7.975 34.473,1.91 42.447,-13.557 7.974,-15.463 1.91,-34.467 -13.558,-42.447 z m -0.444,35.228 c -3.985,7.725 -13.488,10.764 -21.226,6.779 -7.732,-3.996 -10.765,-13.496 -6.776,-21.227 3.99,-7.729 13.492,-10.77 21.223,-6.783 7.734,3.993 10.772,13.497 6.779,21.231 z"
   id="path3029" />

	<g
   id="g3031"
   style="fill:#c0c0c0;fill-opacity:1">
		<path
   style="fill:#c0c0c0;fill-opacity:1"
   d="m 811.795,541.396 c -5.56,18.109 4.608,37.303 22.722,42.865 18.107,5.559 37.304,-4.613 42.864,-22.727 5.564,-18.107 -4.612,-37.299 -22.725,-42.863 -18.11,-5.562 -37.296,4.616 -42.861,22.725 z m 54.654,16.786 c -3.705,12.072 -16.5,18.852 -28.578,15.144 -12.07,-3.709 -18.858,-16.5 -15.15,-28.574 3.706,-12.076 16.509,-18.856 28.578,-15.15 12.077,3.711 18.86,16.502 15.15,28.58 z"
   id="path3030" />

		<path
   style="fill:#c0c0c0;fill-opacity:1"
   d="m 830.009,546.988 c -2.472,8.051 2.048,16.582 10.101,19.055 8.05,2.475 16.58,-2.053 19.052,-10.103 2.474,-8.049 -2.051,-16.574 -10.099,-19.049 -8.055,-2.471 -16.583,2.049 -19.054,10.097 z m 18.218,5.594 c -0.615,2.014 -2.747,3.144 -4.76,2.527 -2.013,-0.621 -3.146,-2.752 -2.525,-4.764 0.616,-2.008 2.751,-3.141 4.762,-2.52 2.014,0.616 3.143,2.749 2.523,4.757 z"
   id="path3031" />

	</g>

	<g
   id="g3035"
   style="fill:#c0c0c0;fill-opacity:1">
		<path
   style="fill:#c0c0c0;fill-opacity:1"
   d="m 759.087,529.436 c 0.714,10.113 9.484,17.73 19.6,17.019 10.117,-0.715 17.738,-9.484 17.024,-19.602 -0.713,-10.111 -9.487,-17.736 -19.604,-17.02 -10.117,0.712 -17.734,9.489 -17.02,19.603 z m 35.379,-2.495 c 0.665,9.426 -6.439,17.602 -15.867,18.264 -9.421,0.666 -17.597,-6.432 -18.26,-15.859 -0.665,-9.42 6.435,-17.598 15.856,-18.262 9.428,-0.664 17.607,6.436 18.271,15.857 z"
   id="path3032" />

		<path
   style="fill:#c0c0c0;fill-opacity:1"
   d="m 764.08,529.082 c 0.518,7.359 6.901,12.9 14.256,12.381 7.356,-0.518 12.901,-6.898 12.383,-14.258 -0.519,-7.35 -6.905,-12.894 -14.261,-12.375 -7.352,0.518 -12.897,6.902 -12.378,14.252 z"
   id="path3033" />

		<path
   style="fill:#c0c0c0;fill-opacity:1"
   d="m 751.863,529.961 c 0.989,14.043 13.174,24.629 27.22,23.637 14.043,-0.99 24.618,-13.178 23.629,-27.223 -0.991,-14.041 -13.169,-24.625 -27.214,-23.635 -14.045,0.99 -24.626,13.178 -23.635,27.221 z m 46.235,-3.26 c 0.811,11.492 -7.847,21.469 -19.341,22.279 -11.494,0.811 -21.472,-7.853 -22.28,-19.346 -0.812,-11.494 7.852,-21.467 19.347,-22.277 11.493,-0.808 21.463,7.852 22.274,19.344 z"
   id="path3034" />

		<path
   style="fill:#c0c0c0;fill-opacity:1"
   d="m 741.449,530.676 c 1.4,19.856 18.63,34.816 38.481,33.416 19.852,-1.398 34.82,-18.629 33.424,-38.48 -1.401,-19.859 -18.638,-34.818 -38.49,-33.418 -19.854,1.396 -34.814,18.626 -33.415,38.482 z m 69.264,-4.879 c 1.296,18.402 -12.565,34.371 -30.968,35.668 -18.401,1.299 -34.371,-12.568 -35.667,-30.973 -1.295,-18.398 12.568,-34.371 30.972,-35.668 18.401,-1.297 34.366,12.574 35.663,30.973 z"
   id="path3035" />

	</g>

	<path
   style="fill:#c0c0c0;fill-opacity:1"
   d="m 770.91,452.041 c -28.474,2.008 -53.273,-19.523 -55.28,-48.001 -0.973,-13.795 3.484,-27.143 12.55,-37.584 9.065,-10.445 21.661,-16.726 35.453,-17.697 13.798,-0.973 27.142,3.482 37.584,12.549 10.443,9.069 16.731,21.658 17.706,35.451 2.005,28.48 -19.535,53.274 -48.013,55.282 z"
   id="path3036" />

	<path
   style="fill:#c0c0c0;fill-opacity:1"
   d="m 816.769,360.004 c -7.378,24.009 6.122,49.446 30.124,56.819 24.016,7.372 49.459,-6.111 56.829,-30.116 6.513,-21.211 -3.262,-43.527 -22.177,-53.529 -2.498,-1.321 -5.148,-2.438 -7.95,-3.297 -14.199,-4.361 -28.909,-1.42 -40.08,6.682 -7.708,5.589 -13.737,13.637 -16.746,23.441 z m 14.488,4.449 c 4.918,-16.006 21.874,-24.993 37.892,-20.076 16.001,4.914 24.997,21.869 20.082,37.878 -4.918,16.004 -21.879,25.003 -37.889,20.086 -16.012,-4.919 -25,-21.884 -20.085,-37.888 z"
   id="path3037" />

	<path
   style="fill:#c0c0c0;fill-opacity:1"
   d="m 858.021,380.601 c 4,1.227 8.239,-1.023 9.468,-5.019 1.229,-4 -1.016,-8.244 -5.019,-9.47 -4.003,-1.23 -8.245,1.018 -9.473,5.018 -1.228,3.999 1.024,8.239 5.024,9.471 z"
   id="path3038" />

	<path
   style="fill:#c0c0c0;fill-opacity:1"
   d="m 736.424,465.615 c -3.855,12.551 3.202,25.848 15.749,29.701 12.555,3.853 25.856,-3.193 29.708,-15.742 3.405,-11.088 -1.703,-22.756 -11.593,-27.984 -1.307,-0.69 -2.69,-1.273 -4.155,-1.725 -7.424,-2.279 -15.113,-0.742 -20.953,3.494 -4.031,2.924 -7.181,7.131 -8.756,12.256 z m 7.576,2.326 c 2.57,-8.369 11.435,-13.066 19.808,-10.496 8.366,2.568 13.066,11.434 10.498,19.801 -2.569,8.365 -11.438,13.07 -19.808,10.5 -8.37,-2.57 -13.068,-11.439 -10.498,-19.805 z"
   id="path3039" />

	<path
   style="fill:#c0c0c0;fill-opacity:1"
   d="m 757.991,476.381 c 2.091,0.641 4.31,-0.535 4.949,-2.623 0.643,-2.092 -0.531,-4.311 -2.623,-4.951 -2.092,-0.64 -4.312,0.533 -4.951,2.625 -0.642,2.088 0.533,4.306 2.625,4.949 z"
   id="path3040" />

	<path
   style="fill:#c0c0c0;fill-opacity:1"
   d="m 800.231,311.087 c -11.327,0.797 -19.863,10.629 -19.064,21.956 0.798,11.329 10.629,19.865 21.955,19.066 11.327,-0.799 19.865,-10.626 19.066,-21.957 -0.795,-11.325 -10.629,-19.863 -21.957,-19.065 z m 2.793,39.623 c -10.556,0.744 -19.717,-7.207 -20.461,-17.764 -0.744,-10.556 7.211,-19.714 17.767,-20.461 10.555,-0.744 19.718,7.212 20.463,17.768 0.742,10.554 -7.214,19.713 -17.769,20.457 z"
   id="path3041" />

	<path
   style="fill:#c0c0c0;fill-opacity:1"
   d="m 800.922,320.89 c -5.917,0.417 -10.37,5.549 -9.952,11.464 0.416,5.915 5.544,10.369 11.461,9.952 5.916,-0.417 10.373,-5.546 9.955,-11.461 -0.416,-5.914 -5.548,-10.373 -11.464,-9.955 z m 1.458,20.688 c -5.51,0.387 -10.292,-3.764 -10.68,-9.275 -0.388,-5.511 3.764,-10.293 9.274,-10.681 5.512,-0.388 10.295,3.764 10.683,9.274 0.389,5.513 -3.763,10.293 -9.277,10.682 z"
   id="path3042" />

	<path
   style="fill:#c0c0c0;fill-opacity:1"
   d="m 801.085,323.189 c -4.643,0.328 -8.144,4.358 -7.816,9.003 0.328,4.646 4.359,8.145 9,7.818 4.646,-0.328 8.144,-4.357 7.815,-9.004 -0.327,-4.646 -4.355,-8.145 -8.999,-7.817 z m 1.139,16.154 c -4.278,0.302 -7.991,-2.917 -8.293,-7.198 -0.301,-4.279 2.925,-7.989 7.199,-8.29 4.278,-0.302 7.992,2.919 8.294,7.198 0.301,4.279 -2.923,7.988 -7.2,8.29 z"
   id="path3043" />

	<path
   style="fill:#c0c0c0;fill-opacity:1"
   d="m 800.663,317.213 c -7.94,0.562 -13.93,7.456 -13.37,15.4 0.559,7.944 7.456,13.931 15.397,13.372 7.946,-0.561 13.929,-7.456 13.37,-15.399 -0.56,-7.945 -7.45,-13.932 -15.397,-13.373 z m 1.966,27.908 c -7.464,0.524 -13.945,-5.102 -14.472,-12.568 -0.526,-7.468 5.102,-13.947 12.566,-14.474 7.468,-0.528 13.95,5.099 14.477,12.568 0.525,7.466 -5.102,13.947 -12.571,14.474 z"
   id="path3044" />

	<path
   style="fill:#c0c0c0;fill-opacity:1"
   d="m 801.178,324.519 c -3.908,0.273 -6.856,3.669 -6.582,7.579 0.276,3.912 3.67,6.858 7.58,6.582 3.911,-0.276 6.859,-3.669 6.584,-7.581 -0.277,-3.909 -3.671,-6.857 -7.582,-6.58 z m 0.951,13.497 c -3.544,0.25 -6.618,-2.421 -6.868,-5.966 -0.251,-3.544 2.421,-6.619 5.962,-6.868 3.546,-0.252 6.622,2.419 6.871,5.966 0.251,3.542 -2.42,6.618 -5.965,6.868 z"
   id="path3045" />

	<path
   style="fill:#c0c0c0;fill-opacity:1"
   d="m 801.223,325.182 c -3.541,0.249 -6.213,3.323 -5.962,6.868 0.25,3.545 3.324,6.216 6.868,5.966 3.545,-0.25 6.216,-3.326 5.965,-6.868 -0.249,-3.547 -3.325,-6.218 -6.871,-5.966 z"
   id="path3046" />

	<path
   style="fill:#c0c0c0;fill-opacity:1"
   d="m 799.754,304.314 c -15.07,1.062 -26.427,14.137 -25.364,29.208 1.063,15.071 14.14,26.429 29.21,25.365 15.075,-1.062 26.429,-14.141 25.367,-29.212 -1.064,-15.069 -14.139,-26.424 -29.213,-25.361 z m 3.566,50.594 c -12.872,0.907 -24.045,-8.795 -24.952,-21.667 -0.907,-12.872 8.794,-24.044 21.665,-24.951 12.874,-0.907 24.046,8.795 24.953,21.667 0.908,12.872 -8.794,24.043 -21.666,24.951 z"
   id="path3047" />

	<path
   style="fill:#c0c0c0;fill-opacity:1"
   d="m 835.701,431.504 c -20.585,1.449 -36.097,19.316 -34.648,39.9 1.453,20.584 19.316,36.096 39.898,34.645 20.583,-1.449 36.101,-19.314 34.651,-39.898 -1.452,-20.585 -19.319,-36.098 -39.901,-34.647 z m 5.072,72.002 c -19.184,1.35 -35.829,-13.1 -37.18,-32.279 -1.353,-19.185 13.103,-35.828 32.285,-37.182 19.178,-1.354 35.83,13.101 37.181,32.283 1.353,19.184 -13.108,35.824 -32.286,37.178 z"
   id="path3048" />

	<path
   style="fill:#c0c0c0;fill-opacity:1"
   d="m 837.079,451.084 c -9.774,0.688 -17.133,9.17 -16.444,18.94 0.688,9.77 9.164,17.135 18.938,16.443 9.772,-0.685 17.137,-9.164 16.447,-18.935 -0.69,-9.77 -9.168,-17.137 -18.941,-16.448 z m 2.409,34.178 c -9.106,0.641 -17.002,-6.215 -17.644,-15.324 -0.642,-9.104 6.217,-17.002 15.318,-17.645 9.109,-0.643 17.008,6.217 17.651,15.324 0.643,9.106 -6.219,17.002 -15.325,17.645 z"
   id="path3049" />

	<path
   style="fill:#c0c0c0;fill-opacity:1"
   d="m 837.249,453.496 c -8.436,0.596 -14.797,7.92 -14.203,16.357 0.597,8.443 7.921,14.799 16.355,14.207 8.439,-0.596 14.797,-7.916 14.202,-16.361 -0.594,-8.435 -7.914,-14.797 -16.354,-14.203 z m 2.067,29.352 c -7.772,0.549 -14.518,-5.301 -15.066,-13.078 -0.549,-7.771 5.311,-14.516 13.083,-15.063 7.775,-0.547 14.52,5.307 15.071,13.078 0.548,7.776 -5.311,14.516 -13.088,15.063 z"
   id="path3050" />

	<path
   style="fill:#c0c0c0;fill-opacity:1"
   d="m 836.908,448.672 c -11.1,0.779 -19.473,10.418 -18.689,21.521 0.782,11.104 10.424,19.473 21.522,18.691 11.109,-0.783 19.469,-10.424 18.688,-21.527 -0.783,-11.101 -10.412,-19.47 -21.521,-18.685 z m 2.749,39.004 c -10.431,0.738 -19.495,-7.129 -20.23,-17.568 -0.733,-10.436 7.134,-19.496 17.566,-20.229 10.438,-0.738 19.498,7.127 20.234,17.566 0.736,10.436 -7.13,19.498 -17.57,20.231 z"
   id="path3051" />

	<path
   style="fill:#c0c0c0;fill-opacity:1"
   d="m 837.419,455.91 c -7.1,0.5 -12.459,6.672 -11.959,13.773 0.502,7.109 6.672,12.465 13.771,11.965 7.107,-0.504 12.465,-6.67 11.965,-13.777 -0.5,-7.103 -6.671,-12.461 -13.777,-11.961 z m 1.728,24.529 c -6.438,0.451 -12.025,-4.4 -12.479,-10.842 -0.455,-6.439 4.396,-12.027 10.834,-12.482 6.443,-0.453 12.028,4.397 12.482,10.84 0.456,6.441 -4.396,12.028 -10.837,12.484 z"
   id="path3052" />

	<path
   style="fill:#c0c0c0;fill-opacity:1"
   d="m 837.503,457.115 c -6.438,0.455 -11.289,6.043 -10.834,12.482 0.453,6.441 6.04,11.293 12.479,10.842 6.44,-0.457 11.293,-6.043 10.838,-12.484 -0.455,-6.443 -6.04,-11.293 -12.483,-10.84 z"
   id="path3053" />

	<path
   style="fill:#c0c0c0;fill-opacity:1"
   d="m 834.832,419.192 c -27.384,1.932 -48.021,25.694 -46.091,53.079 1.93,27.389 25.697,48.027 53.079,46.096 27.392,-1.928 48.026,-25.699 46.099,-53.084 -1.932,-27.386 -25.696,-48.019 -53.087,-46.091 z m 6.478,91.943 c -23.389,1.65 -43.692,-15.982 -45.341,-39.373 -1.646,-23.391 15.981,-43.691 39.371,-45.342 23.391,-1.648 43.692,15.98 45.341,39.369 1.65,23.393 -15.979,43.697 -39.371,45.346 z"
   id="path3054" />

	<path
   style="fill:#c0c0c0;fill-opacity:1"
   d="m 798.947,557.861 c -4.01,0.283 -7.672,2.111 -10.308,5.148 -2.638,3.035 -3.934,6.916 -3.651,10.93 0.584,8.279 7.795,14.543 16.076,13.961 8.281,-0.586 14.545,-7.799 13.96,-16.078 -0.281,-4.014 -2.109,-7.672 -5.146,-10.309 -3.037,-2.638 -6.918,-3.935 -10.931,-3.652 z m 1.999,28.368 c -7.36,0.518 -13.771,-5.047 -14.289,-12.408 -0.251,-3.566 0.9,-7.016 3.244,-9.715 2.344,-2.699 5.6,-4.322 9.163,-4.574 3.566,-0.25 7.017,0.902 9.717,3.244 2.697,2.344 4.323,5.598 4.574,9.168 0.521,7.355 -5.047,13.767 -12.409,14.285 z"
   id="path3055" />

	<path
   style="fill:#c0c0c0;fill-opacity:1"
   d="m 799.398,564.277 c -4.748,0.334 -8.327,4.459 -7.993,9.211 0.334,4.746 4.457,8.33 9.207,7.996 4.751,-0.334 8.332,-4.463 7.998,-9.209 -0.335,-4.752 -4.459,-8.332 -9.212,-7.998 z m 0.912,12.903 c -2.376,0.168 -4.438,-1.623 -4.604,-3.996 -0.166,-2.375 1.622,-4.438 3.998,-4.604 2.376,-0.168 4.439,1.623 4.607,3.998 0.165,2.371 -1.626,4.434 -4.001,4.602 z"
   id="path3056" />

	<path
   style="fill:#c0c0c0;fill-opacity:1"
   d="m 703.991,493.572 c -9.393,0.662 -17.971,4.945 -24.147,12.061 -6.176,7.111 -9.212,16.199 -8.55,25.603 1.366,19.391 18.259,34.066 37.656,32.695 19.4,-1.363 34.073,-18.264 32.706,-37.66 -0.662,-9.398 -4.948,-17.971 -12.059,-24.145 -7.116,-6.177 -16.204,-9.22 -25.606,-8.554 z m 4.688,66.451 c -17.243,1.211 -32.26,-11.824 -33.475,-29.068 -0.589,-8.35 2.11,-16.435 7.599,-22.758 5.494,-6.32 13.119,-10.123 21.465,-10.715 8.355,-0.586 16.435,2.115 22.762,7.598 6.316,5.492 10.128,13.119 10.718,21.475 1.211,17.236 -11.831,32.252 -29.069,33.468 z"
   id="path3057" />

	<path
   style="fill:#c0c0c0;fill-opacity:1"
   d="m 705.052,508.602 c -11.126,0.785 -19.51,10.441 -18.725,21.578 0.781,11.117 10.438,19.518 21.566,18.729 11.13,-0.785 19.516,-10.453 18.736,-21.57 -0.783,-11.132 -10.444,-19.521 -21.577,-18.737 z m 2.13,30.226 c -5.564,0.393 -10.391,-3.805 -10.782,-9.363 -0.392,-5.561 3.799,-10.393 9.364,-10.781 5.565,-0.396 10.396,3.799 10.789,9.359 0.388,5.559 -3.804,10.391 -9.371,10.785 z"
   id="path3058" />

	<g
   id="g3062"
   style="fill:#c0c0c0;fill-opacity:1">
		<path
   style="fill:#c0c0c0;fill-opacity:1"
   d="m 677.589,456.625 c 0.804,11.371 10.662,19.932 22.034,19.131 11.371,-0.799 19.937,-10.664 19.137,-22.031 -0.801,-11.367 -10.667,-19.936 -22.036,-19.133 -11.372,0.801 -19.936,10.668 -19.135,22.033 z m 39.768,-2.803 c 0.746,10.598 -7.235,19.783 -17.833,20.529 -10.591,0.746 -19.782,-7.228 -20.529,-17.828 -0.746,-10.588 7.236,-19.781 17.827,-20.527 10.597,-0.746 19.789,7.237 20.535,17.826 z"
   id="path3059" />

		<path
   style="fill:#c0c0c0;fill-opacity:1"
   d="m 683.202,456.229 c 0.582,8.273 7.762,14.502 16.027,13.922 8.263,-0.584 14.501,-7.762 13.918,-16.033 -0.581,-8.26 -7.764,-14.49 -16.028,-13.906 -8.265,0.581 -14.499,7.755 -13.917,16.017 z"
   id="path3060" />

		<path
   style="fill:#c0c0c0;fill-opacity:1"
   d="m 669.473,457.217 c 1.11,15.787 14.807,27.684 30.594,26.57 15.788,-1.111 27.675,-14.811 26.563,-30.598 -1.112,-15.787 -14.802,-27.682 -30.594,-26.57 -15.787,1.111 -27.676,14.811 -26.563,30.598 z m 51.969,-3.662 c 0.911,12.918 -8.821,24.133 -21.742,25.043 -12.918,0.91 -24.134,-8.828 -25.045,-21.746 -0.911,-12.922 8.829,-24.13 21.748,-25.039 12.922,-0.912 24.128,8.818 25.039,21.742 z"
   id="path3061" />

		<path
   style="fill:#c0c0c0;fill-opacity:1"
   d="m 657.764,458.023 c 1.573,22.318 20.941,39.133 43.258,37.56 22.314,-1.572 39.138,-20.938 37.564,-43.254 -1.571,-22.323 -20.946,-39.138 -43.259,-37.565 -22.317,1.572 -39.137,20.937 -37.563,43.259 z m 77.86,-5.486 c 1.458,20.685 -14.126,38.637 -34.813,40.094 -20.685,1.457 -38.633,-14.129 -40.091,-34.816 -1.458,-20.684 14.126,-38.637 34.813,-40.095 20.687,-1.458 38.633,14.134 40.091,34.817 z"
   id="path3062" />

	</g>

	<g
   id="g3092"
   style="fill:#c0c0c0;fill-opacity:1">
		<g
   id="g3063"
   style="fill:#c0c0c0;fill-opacity:1">
			<path
   style="clip-rule:evenodd;fill:#c0c0c0;fill-opacity:1;fill-rule:evenodd"
   d="m 909.838,471.16 c 0.493,1.023 0.063,2.252 -0.96,2.742 -1.023,0.494 -2.251,0.064 -2.743,-0.959 -0.492,-1.021 -0.063,-2.252 0.96,-2.742 1.022,-0.494 2.251,-0.064 2.743,0.959 z"
   id="path3063" />

		</g>

		<g
   id="g3064"
   style="fill:#c0c0c0;fill-opacity:1">
			<path
   style="clip-rule:evenodd;fill:#c0c0c0;fill-opacity:1;fill-rule:evenodd"
   d="m 968.871,482.699 c 0.738,1.533 0.094,3.373 -1.438,4.111 -1.534,0.736 -3.374,0.094 -4.111,-1.437 -0.737,-1.533 -0.094,-3.373 1.438,-4.111 1.534,-0.739 3.374,-0.094 4.111,1.437 z"
   id="path3064" />

		</g>

		<g
   id="g3065"
   style="fill:#c0c0c0;fill-opacity:1">
			<path
   style="clip-rule:evenodd;fill:#c0c0c0;fill-opacity:1;fill-rule:evenodd"
   d="m 937.557,426.029 c 0.403,0.838 0.052,1.846 -0.787,2.25 -0.839,0.403 -1.847,0.051 -2.249,-0.788 -0.406,-0.84 -0.053,-1.847 0.787,-2.251 0.836,-0.404 1.844,-0.051 2.249,0.789 z"
   id="path3065" />

		</g>

		<g
   id="g3066"
   style="fill:#c0c0c0;fill-opacity:1">
			<path
   style="clip-rule:evenodd;fill:#c0c0c0;fill-opacity:1;fill-rule:evenodd"
   d="m 941.691,604.508 c 0.579,1.203 0.074,2.646 -1.128,3.225 -1.203,0.58 -2.646,0.076 -3.226,-1.127 -0.58,-1.203 -0.073,-2.648 1.13,-3.227 1.202,-0.578 2.646,-0.074 3.224,1.129 z"
   id="path3066" />

		</g>

		<g
   id="g3067"
   style="fill:#c0c0c0;fill-opacity:1">
			<path
   style="clip-rule:evenodd;fill:#c0c0c0;fill-opacity:1;fill-rule:evenodd"
   d="m 928.307,446.447 c 0.313,0.654 0.039,1.44 -0.614,1.756 -0.656,0.316 -1.441,0.041 -1.758,-0.613 -0.313,-0.654 -0.039,-1.441 0.616,-1.756 0.653,-0.316 1.439,-0.039 1.756,0.613 z"
   id="path3067" />

		</g>

		<g
   id="g3068"
   style="fill:#c0c0c0;fill-opacity:1">
			<path
   style="clip-rule:evenodd;fill:#c0c0c0;fill-opacity:1;fill-rule:evenodd"
   d="m 946.101,451.34 c 0.621,1.289 0.078,2.834 -1.208,3.453 -1.288,0.621 -2.833,0.08 -3.453,-1.207 -0.62,-1.287 -0.079,-2.836 1.209,-3.457 1.285,-0.617 2.831,-0.076 3.452,1.211 z"
   id="path3068" />

		</g>

		<g
   id="g3069"
   style="fill:#c0c0c0;fill-opacity:1">
			<path
   style="clip-rule:evenodd;fill:#c0c0c0;fill-opacity:1;fill-rule:evenodd"
   d="m 936.001,472.463 c 0.955,1.984 0.121,4.363 -1.862,5.318 -1.982,0.957 -4.362,0.123 -5.317,-1.861 -0.956,-1.981 -0.122,-4.363 1.859,-5.318 1.984,-0.956 4.365,-0.122 5.32,1.861 z"
   id="path3069" />

		</g>

		<g
   id="g3070"
   style="fill:#c0c0c0;fill-opacity:1">
			<path
   style="clip-rule:evenodd;fill:#c0c0c0;fill-opacity:1;fill-rule:evenodd"
   d="m 946.556,475.891 c 0.221,0.457 0.027,1.004 -0.428,1.225 -0.458,0.219 -1.005,0.027 -1.226,-0.43 -0.219,-0.455 -0.028,-1.004 0.429,-1.223 0.455,-0.223 1.006,-0.029 1.225,0.428 z"
   id="path3070" />

		</g>

		<g
   id="g3071"
   style="fill:#c0c0c0;fill-opacity:1">
			<path
   style="clip-rule:evenodd;fill:#c0c0c0;fill-opacity:1;fill-rule:evenodd"
   d="m 929.604,487.479 c 0.122,0.254 0.015,0.559 -0.239,0.68 -0.254,0.123 -0.559,0.016 -0.68,-0.236 -0.124,-0.254 -0.017,-0.559 0.238,-0.682 0.254,-0.122 0.559,-0.016 0.681,0.238 z"
   id="path3071" />

		</g>

		<g
   id="g3072"
   style="fill:#c0c0c0;fill-opacity:1">
			<path
   style="clip-rule:evenodd;fill:#c0c0c0;fill-opacity:1;fill-rule:evenodd"
   d="m 950.507,500.695 c 0.485,1.008 0.062,2.217 -0.944,2.701 -1.008,0.484 -2.216,0.063 -2.702,-0.945 -0.483,-1.006 -0.062,-2.215 0.947,-2.699 1.005,-0.486 2.216,-0.063 2.699,0.943 z"
   id="path3072" />

		</g>

		<g
   id="g3073"
   style="fill:#c0c0c0;fill-opacity:1">
			<path
   style="clip-rule:evenodd;fill:#c0c0c0;fill-opacity:1;fill-rule:evenodd"
   d="m 966.102,509.938 c 0.586,1.217 0.074,2.678 -1.142,3.266 -1.218,0.584 -2.678,0.074 -3.265,-1.143 -0.585,-1.217 -0.074,-2.68 1.143,-3.266 1.218,-0.588 2.68,-0.074 3.264,1.143 z"
   id="path3073" />

		</g>

		<g
   id="g3074"
   style="fill:#c0c0c0;fill-opacity:1">
			<path
   style="clip-rule:evenodd;fill:#c0c0c0;fill-opacity:1;fill-rule:evenodd"
   d="m 957.568,518.23 c 0.64,1.328 0.082,2.918 -1.243,3.557 -1.326,0.639 -2.918,0.082 -3.556,-1.244 -0.639,-1.324 -0.082,-2.918 1.244,-3.557 1.326,-0.638 2.917,-0.08 3.555,1.244 z"
   id="path3074" />

		</g>

		<g
   id="g3075"
   style="fill:#c0c0c0;fill-opacity:1">
			<path
   style="clip-rule:evenodd;fill:#c0c0c0;fill-opacity:1;fill-rule:evenodd"
   d="m 967.645,537.371 c 0.7,1.455 0.089,3.203 -1.366,3.904 -1.456,0.701 -3.204,0.088 -3.904,-1.365 -0.701,-1.457 -0.09,-3.205 1.366,-3.908 1.454,-0.699 3.203,-0.088 3.904,1.369 z"
   id="path3075" />

		</g>

		<g
   id="g3076"
   style="fill:#c0c0c0;fill-opacity:1">
			<path
   style="clip-rule:evenodd;fill:#c0c0c0;fill-opacity:1;fill-rule:evenodd"
   d="m 932.423,550.391 c 0.569,1.185 0.07,2.611 -1.113,3.18 -1.188,0.57 -2.609,0.074 -3.18,-1.111 -0.572,-1.188 -0.073,-2.609 1.112,-3.18 1.184,-0.573 2.609,-0.075 3.181,1.111 z"
   id="path3076" />

		</g>

		<g
   id="g3077"
   style="fill:#c0c0c0;fill-opacity:1">
			<path
   style="clip-rule:evenodd;fill:#c0c0c0;fill-opacity:1;fill-rule:evenodd"
   d="m 961.342,576.021 c 0.219,0.455 0.028,1 -0.427,1.219 -0.455,0.219 -0.999,0.027 -1.219,-0.426 -0.218,-0.455 -0.026,-1 0.427,-1.219 0.454,-0.216 1,-0.027 1.219,0.426 z"
   id="path3077" />

		</g>

		<g
   id="g3078"
   style="fill:#c0c0c0;fill-opacity:1">
			<path
   style="clip-rule:evenodd;fill:#c0c0c0;fill-opacity:1;fill-rule:evenodd"
   d="m 937.348,575.395 c 0.802,1.662 0.101,3.658 -1.56,4.459 -1.663,0.801 -3.659,0.102 -4.459,-1.561 -0.8,-1.66 -0.103,-3.658 1.56,-4.459 1.661,-0.799 3.659,-0.102 4.459,1.561 z"
   id="path3078" />

		</g>

		<g
   id="g3079"
   style="fill:#c0c0c0;fill-opacity:1">
			<path
   style="clip-rule:evenodd;fill:#c0c0c0;fill-opacity:1;fill-rule:evenodd"
   d="m 924.009,589.738 c 0.278,0.58 0.035,1.277 -0.545,1.555 -0.58,0.281 -1.273,0.035 -1.554,-0.543 -0.278,-0.578 -0.035,-1.275 0.544,-1.553 0.58,-0.279 1.275,-0.035 1.555,0.541 z"
   id="path3079" />

		</g>

		<g
   id="g3080"
   style="fill:#c0c0c0;fill-opacity:1">
			<path
   style="clip-rule:evenodd;fill:#c0c0c0;fill-opacity:1;fill-rule:evenodd"
   d="m 912.909,598.279 c 0.771,1.602 0.1,3.525 -1.504,4.297 -1.602,0.772 -3.527,0.098 -4.298,-1.504 -0.772,-1.602 -0.099,-3.527 1.503,-4.299 1.603,-0.773 3.528,-0.097 4.299,1.506 z"
   id="path3080" />

		</g>

		<g
   id="g3081"
   style="fill:#c0c0c0;fill-opacity:1">
			<path
   style="clip-rule:evenodd;fill:#c0c0c0;fill-opacity:1;fill-rule:evenodd"
   d="m 886.854,582.135 c 0.152,0.315 0.021,0.691 -0.292,0.842 -0.313,0.152 -0.691,0.02 -0.843,-0.295 -0.151,-0.315 -0.019,-0.691 0.295,-0.842 0.314,-0.15 0.691,-0.018 0.84,0.295 z"
   id="path3081" />

		</g>

		<g
   id="g3082"
   style="fill:#c0c0c0;fill-opacity:1">
			<path
   style="clip-rule:evenodd;fill:#c0c0c0;fill-opacity:1;fill-rule:evenodd"
   d="m 845.282,630.461 c 1.021,2.123 0.128,4.674 -1.995,5.697 -2.123,1.021 -4.672,0.129 -5.694,-1.992 -1.023,-2.125 -0.132,-4.676 1.992,-5.697 2.122,-1.024 4.674,-0.131 5.697,1.992 z"
   id="path3082" />

		</g>

		<g
   id="g3083"
   style="fill:#c0c0c0;fill-opacity:1">
			<path
   style="clip-rule:evenodd;fill:#c0c0c0;fill-opacity:1;fill-rule:evenodd"
   d="m 884.389,598.553 c 1.076,2.23 0.137,4.912 -2.096,5.988 -2.233,1.074 -4.915,0.135 -5.99,-2.098 -1.075,-2.232 -0.137,-4.914 2.097,-5.99 2.232,-1.074 4.913,-0.137 5.989,2.1 z"
   id="path3083" />

		</g>

		<g
   id="g3084"
   style="fill:#c0c0c0;fill-opacity:1">
			<path
   style="clip-rule:evenodd;fill:#c0c0c0;fill-opacity:1;fill-rule:evenodd"
   d="m 867.259,610.469 c 0.714,1.482 0.091,3.268 -1.394,3.98 -1.485,0.715 -3.267,0.09 -3.98,-1.393 -0.715,-1.482 -0.092,-3.266 1.393,-3.982 1.483,-0.713 3.266,-0.088 3.981,1.395 z"
   id="path3084" />

		</g>

		<g
   id="g3085"
   style="fill:#c0c0c0;fill-opacity:1">
			<path
   style="clip-rule:evenodd;fill:#c0c0c0;fill-opacity:1;fill-rule:evenodd"
   d="m 849.189,618.313 c 0.967,2.01 0.121,4.424 -1.887,5.391 -2.01,0.969 -4.423,0.125 -5.39,-1.885 -0.969,-2.01 -0.124,-4.424 1.886,-5.391 2.008,-0.969 4.423,-0.125 5.391,1.885 z"
   id="path3085" />

		</g>

		<g
   id="g3086"
   style="fill:#c0c0c0;fill-opacity:1">
			<path
   style="clip-rule:evenodd;fill:#c0c0c0;fill-opacity:1;fill-rule:evenodd"
   d="m 846.075,605.902 c 0.321,0.666 0.042,1.465 -0.625,1.785 -0.667,0.32 -1.464,0.041 -1.785,-0.623 -0.321,-0.666 -0.042,-1.467 0.624,-1.787 0.667,-0.32 1.465,-0.041 1.786,0.625 z"
   id="path3086" />

		</g>

		<g
   id="g3087"
   style="fill:#c0c0c0;fill-opacity:1">
			<path
   style="clip-rule:evenodd;fill:#c0c0c0;fill-opacity:1;fill-rule:evenodd"
   d="m 833.949,602.744 c 0.744,1.547 0.094,3.404 -1.45,4.146 -1.547,0.746 -3.403,0.096 -4.147,-1.451 -0.746,-1.547 -0.098,-3.402 1.45,-4.147 1.547,-0.743 3.404,-0.093 4.147,1.452 z"
   id="path3087" />

		</g>

		<g
   id="g3088"
   style="fill:#c0c0c0;fill-opacity:1">
			<path
   style="clip-rule:evenodd;fill:#c0c0c0;fill-opacity:1;fill-rule:evenodd"
   d="m 822.567,604.307 c 0.109,2.35 -1.707,4.346 -4.057,4.455 -2.35,0.107 -4.344,-1.709 -4.454,-4.059 -0.108,-2.35 1.709,-4.344 4.058,-4.453 2.351,-0.109 4.344,1.707 4.453,4.057 z"
   id="path3088" />

		</g>

		<g
   id="g3089"
   style="fill:#c0c0c0;fill-opacity:1">
			<path
   style="clip-rule:evenodd;fill:#c0c0c0;fill-opacity:1;fill-rule:evenodd"
   d="m 821.537,626.125 c 0.816,1.695 0.103,3.729 -1.59,4.545 -1.695,0.816 -3.729,0.105 -4.546,-1.59 -0.816,-1.695 -0.103,-3.73 1.591,-4.545 1.694,-0.816 3.73,-0.105 4.545,1.59 z"
   id="path3089" />

		</g>

		<g
   id="g3090"
   style="fill:#c0c0c0;fill-opacity:1">
			<path
   style="clip-rule:evenodd;fill:#c0c0c0;fill-opacity:1;fill-rule:evenodd"
   d="m 813.406,643.414 c 0.642,1.334 0.082,2.934 -1.249,3.576 -1.333,0.643 -2.935,0.08 -3.576,-1.252 -0.642,-1.332 -0.081,-2.932 1.252,-3.574 1.332,-0.641 2.932,-0.08 3.573,1.25 z"
   id="path3090" />

		</g>

		<g
   id="g3091"
   style="fill:#c0c0c0;fill-opacity:1">
			<path
   style="clip-rule:evenodd;fill:#c0c0c0;fill-opacity:1;fill-rule:evenodd"
   d="m 790.705,635.84 c 0.219,0.453 0.028,0.996 -0.425,1.215 -0.453,0.217 -0.997,0.027 -1.214,-0.424 -0.22,-0.453 -0.028,-1 0.425,-1.217 0.452,-0.219 0.996,-0.027 1.214,0.426 z"
   id="path3091" />

		</g>

	</g>

	<g
   id="g3105"
   style="fill:#c0c0c0;fill-opacity:1">
		<g
   id="g3093"
   style="fill:#c0c0c0;fill-opacity:1">
			<path
   style="clip-rule:evenodd;fill:#c0c0c0;fill-opacity:1;fill-rule:evenodd"
   d="m 684.23,309 c 0.941,1.956 0.12,4.303 -1.836,5.245 -1.955,0.941 -4.303,0.119 -5.245,-1.836 -0.942,-1.954 -0.119,-4.304 1.835,-5.246 1.956,-0.943 4.305,-0.119 5.246,1.837 z"
   id="path3092" />

		</g>

		<g
   id="g3094"
   style="fill:#c0c0c0;fill-opacity:1">
			<path
   style="clip-rule:evenodd;fill:#c0c0c0;fill-opacity:1;fill-rule:evenodd"
   d="m 658.329,326.066 c 1.43,2.969 0.182,6.534 -2.787,7.962 -2.969,1.43 -6.534,0.184 -7.964,-2.786 -1.429,-2.97 -0.182,-6.535 2.787,-7.965 2.969,-1.428 6.534,-0.18 7.964,2.789 z"
   id="path3093" />

		</g>

		<g
   id="g3095"
   style="fill:#c0c0c0;fill-opacity:1">
			<path
   style="clip-rule:evenodd;fill:#c0c0c0;fill-opacity:1;fill-rule:evenodd"
   d="m 652.036,336.078 c 0.755,1.568 0.096,3.45 -1.472,4.205 -1.567,0.755 -3.451,0.095 -4.206,-1.471 -0.754,-1.569 -0.096,-3.452 1.473,-4.206 1.566,-0.754 3.45,-0.096 4.205,1.472 z"
   id="path3094" />

		</g>

		<g
   id="g3096"
   style="fill:#c0c0c0;fill-opacity:1">
			<path
   style="clip-rule:evenodd;fill:#c0c0c0;fill-opacity:1;fill-rule:evenodd"
   d="m 628.292,370.599 c 1.238,2.572 0.156,5.662 -2.415,6.9 -2.572,1.239 -5.663,0.158 -6.901,-2.414 -1.239,-2.573 -0.158,-5.662 2.415,-6.902 2.572,-1.239 5.661,-0.156 6.901,2.416 z"
   id="path3095" />

		</g>

		<g
   id="g3097"
   style="fill:#c0c0c0;fill-opacity:1">
			<path
   style="clip-rule:evenodd;fill:#c0c0c0;fill-opacity:1;fill-rule:evenodd"
   d="m 641.049,409.336 c 1.265,2.627 0.16,5.779 -2.465,7.043 -2.626,1.265 -5.778,0.162 -7.042,-2.465 -1.266,-2.625 -0.162,-5.778 2.464,-7.043 2.624,-1.263 5.778,-0.159 7.043,2.465 z"
   id="path3096" />

		</g>

		<g
   id="g3098"
   style="fill:#c0c0c0;fill-opacity:1">
			<path
   style="clip-rule:evenodd;fill:#c0c0c0;fill-opacity:1;fill-rule:evenodd"
   d="m 620.267,443.803 c 1.457,3.027 0.185,6.662 -2.841,8.119 -3.026,1.459 -6.661,0.188 -8.119,-2.84 -1.458,-3.027 -0.185,-6.662 2.841,-8.119 3.026,-1.459 6.662,-0.186 8.119,2.84 z"
   id="path3097" />

		</g>

		<g
   id="g3099"
   style="fill:#c0c0c0;fill-opacity:1">
			<path
   style="clip-rule:evenodd;fill:#c0c0c0;fill-opacity:1;fill-rule:evenodd"
   d="m 584.037,465.455 c 0.471,0.98 0.06,2.156 -0.92,2.627 -0.979,0.473 -2.154,0.06 -2.626,-0.918 -0.472,-0.98 -0.06,-2.156 0.919,-2.627 0.979,-0.472 2.155,-0.06 2.627,0.918 z"
   id="path3098" />

		</g>

		<g
   id="g3100"
   style="fill:#c0c0c0;fill-opacity:1">
			<path
   style="clip-rule:evenodd;fill:#c0c0c0;fill-opacity:1;fill-rule:evenodd"
   d="m 719.542,337.327 c 0.727,1.51 0.094,3.323 -1.417,4.049 -1.509,0.728 -3.322,0.094 -4.05,-1.416 -0.728,-1.51 -0.093,-3.324 1.417,-4.051 1.511,-0.728 3.324,-0.092 4.05,1.418 z"
   id="path3099" />

		</g>

		<g
   id="g3101"
   style="fill:#c0c0c0;fill-opacity:1">
			<path
   style="clip-rule:evenodd;fill:#c0c0c0;fill-opacity:1;fill-rule:evenodd"
   d="m 640.492,484.781 c 1.308,2.717 0.166,5.98 -2.551,7.289 -2.718,1.309 -5.979,0.166 -7.288,-2.553 -1.309,-2.715 -0.168,-5.978 2.55,-7.287 2.717,-1.308 5.98,-0.166 7.289,2.551 z"
   id="path3100" />

		</g>

		<g
   id="g3102"
   style="fill:#c0c0c0;fill-opacity:1">
			<path
   style="clip-rule:evenodd;fill:#c0c0c0;fill-opacity:1;fill-rule:evenodd"
   d="m 608.582,386.816 c 0.56,1.167 0.071,2.566 -1.094,3.128 -1.166,0.561 -2.565,0.071 -3.127,-1.095 -0.561,-1.167 -0.072,-2.566 1.093,-3.128 1.166,-0.56 2.565,-0.07 3.128,1.095 z"
   id="path3101" />

		</g>

		<g
   id="g3103"
   style="fill:#c0c0c0;fill-opacity:1">
			<path
   style="clip-rule:evenodd;fill:#c0c0c0;fill-opacity:1;fill-rule:evenodd"
   d="m 678.825,330.326 c 0.535,1.113 0.067,2.451 -1.045,2.985 -1.114,0.536 -2.451,0.07 -2.987,-1.044 -0.536,-1.115 -0.068,-2.45 1.046,-2.987 1.112,-0.536 2.449,-0.068 2.986,1.046 z"
   id="path3102" />

		</g>

		<g
   id="g3104"
   style="fill:#c0c0c0;fill-opacity:1">
			<path
   style="clip-rule:evenodd;fill:#c0c0c0;fill-opacity:1;fill-rule:evenodd"
   d="m 700.144,352.579 c 1.093,2.272 0.139,4.998 -2.133,6.093 -2.27,1.093 -4.997,0.139 -6.091,-2.132 -1.094,-2.271 -0.139,-4.999 2.132,-6.091 2.271,-1.094 5,-0.14 6.092,2.13 z"
   id="path3103" />

		</g>

	</g>

</g>
  </g>
</svg>
