<svg version="1.2" xmlns="http://www.w3.org/2000/svg" viewBox="0 0 960 960" width="960" height="960">
	<title>1068937_OMJFHX1</title>
	<defs>
		<clipPath clipPathUnits="userSpaceOnUse" id="cp1">
			<path d="m960 960h-960v-960h960z"/>
		</clipPath>
	</defs>
	<style>
		.s0 { fill: #d4d879 } 
	</style>
	<g id="Layer 1">
		<g id="&lt;Clip Group&gt;" clip-path="url(#cp1)">
			<g id="&lt;Group&gt;">
				<g id="&lt;Group&gt;">
					<path id="&lt;Path&gt;" class="s0" d="m213.2 775.3c2.5-9.1 2.4-21.3 2-27.4-1.4-23.6-6.7-44-24.8-59.5-20.3-17.6-55.5-12.9-70.8-34.6-4.4 10 1.4 21.3 9.3 30.1-13.3 7.5-25.6-7.3-44.4 6.7-14.7 10.8-28.2 32.7-20.2 50.7-3.9-8.8 11.1-18.9 18.3-13.1 11.8 9.5-11.7 28.3-17.5 34.3-13.3 13.5-19.1 46.1 2.1 55.7 13.5 6.1 38.4 0.6 34.6-18.2-3.5-17.1-28.9-11.9-22.2 3.9q0-0.1 0-0.1c-5.2-12.2 18.6-12.8 14.5 0.7-2.8 9-16.3 8.2-21.8 3.1-12.8-11.7-1.7-29.3 10.8-34.9 13.7-6.1 27.9-1.9 40.1 5.6 16.6 10.2 25.1 29.5 29.2 47.7 7.9 35.7 3.7 89.7-27.3 114.3 14.6 20.4 82.3-59.7 64.2-111.5-4.7-13.5-21.6-22.4-28.4-32.3-10.4-15-5.8-33 13.6-30.5 21.6 2.7 27.9 41.1 33.8 56.2-3.7-9.3 0.2-29.1 4.9-46.9z"/>
					<g id="&lt;Group&gt;">
						<path id="&lt;Path&gt;" class="s0" d="m338 653.5c-20.3 7.3-33.6 22.5-58.1 18.2-21.7-3.8-37.7-20.6-62.4-22.3 26.7 3.7 31.2-22.4 50.9-33.3 23.2-12.7 46.6 3.4 64.4 20.6-21.2-14.4-49.7-8.8-69.2 6.3 27.6-9.9 58.3-5.8 80.8 10.9z"/>
						<path id="&lt;Path&gt;" class="s0" d="m339.5 633.8c-14.3-16.4-33.2-23.3-38.1-47.6-4.4-21.7 5.5-42.6-1.9-66.3 6.3 26.3 32.2 21 49.5 35.4 20.3 16.9 13.7 44.6 4.2 67.5 5.7-25-9.9-49.5-31-62.2 19.2 22.1 26.6 52.1 19.2 79.2z"/>
						<path id="&lt;Path&gt;" class="s0" d="m363.7 626.9c3.3-21.4-3.6-40.3 11.9-59.8 13.7-17.3 36-23.2 49.4-44.2-16.1 21.8 4.8 38.1 4.9 60.7 0.1 26.4-25.3 39.3-48.9 46.7 22.8-11.7 31.5-39.5 27.5-63.8-4.5 29-22.7 54-48.1 65.8z"/>
						<path id="&lt;Path&gt;" class="s0" d="m385.4 661.6c20.9 5.1 35.9 18.7 59.7 11.9 21.2-6.2 35.3-24.6 59.6-29-26.2 6.6-33.4-18.9-54.1-27.6-24.5-10.1-46 8.5-61.9 27.5 19.5-16.6 48.5-14.1 69.5-1.2-28.5-6.9-58.6 0.4-79.1 19.5z"/>
						<path id="&lt;Path&gt;" class="s0" d="m366.1 669.9c3.1 21.4-3.9 40.3 11.4 59.8 13.7 17.4 35.9 23.5 49.2 44.5-15.9-21.8 5-38.1 5.3-60.6 0.2-26.5-25.1-39.4-48.6-47 22.6 11.8 31.2 39.6 27.1 64-4.4-29-22.4-54.2-47.8-66.1z"/>
						<path id="&lt;Path&gt;" class="s0" d="m344.6 662c-17.8 12.2-37.9 14.2-48.7 36.6-9.5 19.9-5.2 42.6-18.2 63.7 12.6-23.9 36.4-12.2 56.7-21.9 23.9-11.4 24.4-39.9 20.8-64.4-0.6 25.6-21.8 45.5-45.5 52.6 24.1-16.7 38.8-44 38.3-72z"/>
					</g>
					<path id="&lt;Path&gt;" class="s0" d="m262.9 817.1c5.5-3.5 10.7-6.5 14.9-7.6 16-3.9 34.3-2.1 48.9 6.7 16.4 9.9 21.6 34.2 39.6 39.9-5.6 5-14.6 3.5-22.3 0.1-1.9 10.4 10.8 15.5 5.9 30.9-3.8 12-15.2 25.5-29.1 23.9 6.8 0.8 10-11.2 4.5-14.9-9.1-5.9-16.2 13.7-18.8 18.8-6 11.7-23.9 19.2-37.2 9.2-8.5-6.3-9.9-24.5 3.6-25.9 12.2-1.2 14.6 16.8 2.6 15.6q0 0 0 0c8.8-0.9 4.2-15-3.8-9.5-5.4 3.7-1.7 12.5 3 15.2 10.8 6 19.9-5 20.8-14.5 0.8-10.3-5.3-18.9-13.2-25.5-10.6-8.9-25.5-10.6-38.7-9.5-25.6 2.1-58.2 17.4-74.9 41.6 10.5-29.5 25.7-66.8 64.5-65.5 10.2 0.3 19.9 9.7 28.2 12.2 12.4 3.8 23.3-3 17.2-15.4-6.9-13.8-34-10.1-45.4-10.8 7 0.4 18.9-8.2 29.7-15z"/>
					<path id="&lt;Path&gt;" class="s0" d="m184.7 889.9c18.9-31.1 40.1-63.7 70.2-89 49-41.2 112.2-61.8 177.7-48.8 56.6 11.1 108.7 51.8 84 112l-0.9 1.5c31.7-61.6-28-106.1-84.5-117.3-65.5-13-128.8 7.6-177.7 48.9-30.2 25.3-56.2 56.5-70.2 89z"/>
					<path id="&lt;Path&gt;" class="s0" d="m258.5 806.6c22.7-12.3 53.2-8.4 78.8 3.6 22.7 10.7 22.2 35.8 49 39.8-11.9-6.2-8.6-32.8-18.5-44.5-14-16.6-37.5-24.8-57.3-18.1 22-25.2 63.4 8.3 88.1 10.8-12.9-1.2-18.7-18.1-28.5-24.8-11.3-7.8-21.5-8.9-34.6-6.8-20 3.2-58.6 23.8-76.4 39z"/>
					<path id="&lt;Path&gt;" class="s0" d="m364.6 757.6c16.2-4.8 53-3 68.2 4.2 19.1 9 19.2 32.6 32.9 42.3-23.2-10.9-37.9 3.9-60.8-11.4-17.8-11.8-28.2-30-51.6-31.3z"/>
					<path id="&lt;Path&gt;" class="s0" d="m444.4 760.9c43.6 4.7 83 49.4 68.9 92.2 3.5-10.6-4.9-29.2-12.8-37.3-4.8-4.8-8.8-1.1-13.9-6.9-7.9-9.1-5.1-20.4-18.6-26.3 10.8 4.8 7.1 15.9 8.6 24.8-2.1-12.6-16.2-17.4-21.4-28.2-3.4-7.3-5.7-12.2-10.8-18.3z"/>
					<path id="&lt;Path&gt;" class="s0" d="m236.8 801.1c37.5-50.7 145.7-76.2 205.6-59.6 40.5 11.2 88.2 36.4 102.6 82.1 7.4 23.7 7.3 53.6-2.9 75.5-8.1 17.7-37 41.8-55.8 20.4-7.6-8.6-1.2-28.9 11.9-23.7 4.1 1.6 6.4 5.3 4.2 9.2-2.9 5.3-11.5 0.7-6.4-3.3 0.9 0.4 3.3 2.3 2.7 3.5 2.9-6-3.5-9.1-8.6-6-4.5 2.8-5.3 10.7-3.3 15.4 4 9.8 14.7 11.9 24 9.3 17.1-4.7 29-21.9 33.2-38.4 3.5-13.4 4.6-27.6 2.8-41.5-3.7-27.6-19.2-52.4-42.1-69.1-37.8-27.4-84.6-38.1-130-33.8-22.2 2.1-43.8 7.7-64.2 15.9-28.8 11.7-58.4 33.1-82.6 54.4z"/>
					<g id="&lt;Group&gt;">
						<path id="&lt;Path&gt;" class="s0" d="m526.3 778.6c9.1 4.3 14.7 12 26.3 11.1 10.3-0.8 18.5-7.9 30.2-7.6-12.7 0.5-13.6-11.9-22.3-17.8-10.2-7-21.9-0.5-31 6.7 10.5-5.8 23.6-1.9 32 6.1-12.4-5.9-26.9-5.4-38.2 1.3z"/>
						<path id="&lt;Path&gt;" class="s0" d="m526.1 763c9.8-2.6 19-0.4 27.2-8.6 7.4-7.3 9-18 18.1-25.4-9.3 8.7-18.1-0.2-28.6 0.9-12.3 1.3-17 13.9-19.2 25.3 4.3-11.3 16.8-16.8 28.3-16.2-13.3 3.6-24 13.4-28.1 25.9z"/>
						<path id="&lt;Path&gt;" class="s0" d="m518.6 751.5c4.2-9.3 11.7-15 10.5-26.5-1-10.3-8.3-18.4-8.2-30 0.8 12.6-11.6 13.8-17.4 22.7-6.7 10.4 0 21.9 7.4 30.8-5.9-10.4-2.3-23.6 5.4-32.2-5.6 12.6-4.8 27.1 2.3 38.2z"/>
						<path id="&lt;Path&gt;" class="s0" d="m499.5 758.4c-9.2-4.1-18.7-3.3-25.6-12.7-6.1-8.4-6.1-19.2-13.9-27.9 7.9 10 17.9 2.6 28.1 5.3 12 3.2 14.7 16.3 15.1 27.9-2.5-11.7-14-19.1-25.5-20.3 12.6 5.6 21.7 16.9 23.9 29.9z"/>
					</g>
					<path id="&lt;Path&gt;" class="s0" d="m208.1 821.1c21.9-1.5 49-38.6 61.9-69.1 19.4-45.9 6.3-85.9-45.3-99.6-18.1-4.8-89.2-19.4-63.5-53.1 7.1-9.3 22.5-12 23.4 3.6 2.1-39.8-44.6-14.2-34.4 4.6-3-3.4-6.5-4.1-9.8-6.8-1.6 10.7-0.2 48.6 19.5 41.3-10.5 3.9-16.9-5.4-22.1-13.8-1 16.2 11.9 29.8 28.4 33.9 17.1 4.2 28.8-6.6 46.1-5.2 36.5 3.1 58.3 25.4 54.2 62-6.6-5.6-24.8-37.1-12.1-45-24.7 15.5-24.7 43.7-23.6 69.3 1 22.3 1 74.5-22.7 77.9z"/>
					<path id="&lt;Path&gt;" class="s0" d="m548 843.3c2.2 12.1 7.9 19.5 21.3 23.8 9.1 2.9 24.2 1.3 27.4-12.2 1.5-6.7-1.6-14.3-8.4-15.7-6.8-1.2-10.6 3-11.7 7.3-0.9 4.2 2 7 4.7 7.6 2.6 0.4 5.9-1.2 6.5-4.1 0.8-3.1-1.5-6.6-3.8-6.1-2.3 0.6-2.9-0.7-1.1-1.9 2.4-1.4 13.9 0.9 11.2 12.1-1.8 7.9-12.7 11.8-19.8 10.5-7-1.4-17-4.8-21-13.6-3.9-8.8-5.7-17-6.6-19.6-1 3.6 1.6 9.9 1.3 11.9z"/>
					<path id="&lt;Path&gt;" class="s0" d="m487.1 824.3c5.5 3.5 11.3 6.5 10.3 15.1-0.2 2-8.7 16.6-6.9 17.4-2.2-1-3-3.7-3-6.3-3.4 0.7-3.2 4.9-8.4 5.4-4.1 0.4-9.7-1.1-11.1-5.2 0.7 2 4.7 1.4 5-0.6 0.5-3.2-6.3-2.8-8.1-2.9-4.3-0.3-10.2-4.7-8.2-9.3 1.3-3 6.3-5.7 8.5-2.1 2.1 3.2-3 6.1-4.3 2.6 1 2.7 5.1-0.7 2.3-2.2-1.8-1.1-3.9 1-4.1 2.6-0.3 3.8 4.2 5 7.2 4.1 3.2-1 4.9-3.8 5.8-6.8 1.1-4-0.4-8.4-2.5-11.9-4.2-6.9-11.4-12.5-22.6-14.2 0.9-2.5 23.3-2.6 28.2 8.3 1.3 2.9-0.1 6.8 0.3 9.4 0.6 3.9 4.1 6.1 6.9 2.9 3.2-3.6-1.7-10.7-3-14 1.4 3.5 4.5 5.7 7.7 7.7z"/>
					<path id="&lt;Path&gt;" class="s0" d="m391.8 801.9c11.5 4.4 23.4 16.5 31.2 25.7 7.8 9.4 14.6 19.9 17.9 31.7 5.1 18 6.9 41.3-8 54.6-5.4 4.8-19.2 11.8-28.4 3 2.8 15.3 33.4 19.2 38.2 2.3 0.2 3.7 1.5 2.9 0.6 7.1 8.1-4.4 18-20.3 19.3-29.5 1.9-13.6-9.8-19.9-13.8-31.3 3.9 4.4 8.5 6.8 12.1 11.6-9.2-14.9-6.5-33.8-18.9-45.9-7.7-7.5-17.9-11.3-27-16.8-7.8-4.6-13.8-10.7-23.2-12.5z"/>
					<path id="&lt;Path&gt;" class="s0" d="m349.2 794.4c22.1-10.1 45.6 14.1 57.6 30 18 23.9 16.1 48.5-12.2 62.8-9.9 5.1-51 22.2-31.1 38.3 5.5 4.5 13.1 5 14.8-4.8 4.4 18.6-21.5 17.2-20.8 1.7-1.3 2.3-3.3 3.1-4.8 5.1-2.5-6-7.1-27.9 5.4-26.2-6.7-0.9-9 5.3-10.9 10.7-2.9-9.1 2.7-18.6 11.8-23 9.4-4.5 17.8 0.2 27.7-2.8 20.9-6.3 30.5-21.8 22.8-42.4-3.1 4.1-9.1 24.4-0.6 27.4-16.7-5.8-20.8-22-23.8-36.8-2.6-13-12.6-50.6-35.9-40z"/>
					<path id="&lt;Path&gt;" class="s0" d="m244.8 699.1c0.6-14-3.9-23.7-17.7-31.8-9.4-5.6-26.6-7.6-33.5 6.6-3.4 7.1-1.9 16.4 5.4 19.5 7.2 3.1 12.6-0.6 14.8-5.1 2.2-4.5-0.4-8.3-3.3-9.6-2.8-1.2-6.8-0.2-8.3 2.9-1.6 3.3 0 7.8 2.7 7.7 2.8-0.1 3.1 1.5 0.7 2.4-2.9 1-15.1-4.5-9.4-16.3 4.1-8.2 17.2-9.9 24.8-6.6 7.4 3.2 17.7 9.6 19.9 20.4 2.1 10.8 2.1 20.3 2.4 23.4 2.1-3.7 0.7-11.4 1.5-13.5z"/>
					<path id="&lt;Path&gt;" class="s0" d="m223.6 783.3c7.9-59.5-11.4-123.9-59.5-161.9-27-21.2-66.5-40.4-103.5-27.8-19.1 6.5-38.7 21-48.3 38.3-7.7 13.9-9.5 44.5 13.6 46.6 9.4 0.8 19.6-13.2 9.8-19.3-3-1.9-6.5-1.7-8.1 1.7-2 4.4 5.2 7.8 5.4 2.6-0.8-0.4-3.2-1-3.7-0.1 2.6-4.8 7.7-2.1 8.1 2.8 0.3 4.3-4.5 8.6-8.5 9.6-8.4 2-14.9-4-17.7-11.4-5.2-13.5 0.4-29.6 9.2-40.3 7.1-8.8 15.9-16.4 26-21.9 19.8-10.9 43.6-12.6 65.7-5.6 36.2 11.6 65.9 37.2 84.9 69.2 9.3 15.5 15.9 32.5 20.5 49.8 13.8 51.9-10.5 129.3-36.6 174.7 14.9-20.5 24-44.1 31.7-63.9 5.4-13.7 9-28.3 11-43.1z"/>
				</g>
				<path id="&lt;Path&gt;" class="s0" d="m199.3 891.4c10.7-6.7 21.1-14.4 35.4-5.2 3.4 2.1 21.8 29.6 24.7 27.1-3.7 3.1-9 2.2-13.6 0-1.6 6.5 5.9 9.7 2.3 19.4-2.8 7.6-10.3 16.1-18.8 15.1 4.2 0.5 6.7-7.1 3.4-9.4-5.3-3.6-10.4 8.6-12.2 11.9-4.2 7.3-17 13.9-23.4 6.3-4.1-4.8-4.7-15.9 3.6-16.7 7.5-0.8 8.2 10.5 0.9 9.7 5.7 0.6 3.2-9.4-1.9-5.9-3.5 2.3-1.6 7.8 1.2 9.5 6.3 3.8 12.4-3.2 13.3-9.1 0.9-6.5-2.5-11.9-7-16-6.1-5.6-15.1-6.6-23.2-5.9-15.7 1.3-31.7 9.2-44.4 27.5-3.5-3.7 15.4-43.3 39-42.5 6.2 0.2 11.8 6 16.7 7.6 7.4 2.3 14.4-1.9 11.1-9.7-3.6-8.7-20.3-6.2-27.2-6.7 7.4 0.5 13.8-3.1 20.1-7z"/>
			</g>
		</g>
	</g>
</svg>